<svg id="レイヤー_1" data-name="レイヤー 1" xmlns="http://www.w3.org/2000/svg" viewBox="0 0 1125 300"><defs><style>.cls-1{fill:#00a4ff;}.cls-2,.cls-3{fill:#fff;}.cls-3{font-size:200px;font-family:mplus-1p-regular, M+ 1p;}</style></defs><title>アートボード 1</title><rect class="cls-1" x="-2.63" y="-3.5" width="1134.38" height="309.38"/><path class="cls-2" d="M137.24,264.63c-4.64-.31-9.3-.48-13.93-1-3.5-.37-4.26-1.54-3.93-5,.15-1.54-.61-2.92-.91-4.37-1.81-8.73-2.13-17.62-3-26.45-.62-6.21-.88-12.43-1.11-18.64-.21-5.85-.54-11.69-.91-17.53,0-.63.18-1.42-.51-1.76s-1.24.36-1.64.76a32.19,32.19,0,0,1-7.9,5.87,36.64,36.64,0,0,1-10.25,3.73c-4.25.78-4.05.57-3.75,5.38.48,7.73.69,15.47,1.27,23.19.4,5.32,1.42,10.65.59,16a32.33,32.33,0,0,1-1.14,5.68c-.73,2.12-2.87,2.87-4.68,3.47a35,35,0,0,1-13.78,1.63c-3.78-.29-5.41-2.39-6.7-5.38a58.35,58.35,0,0,1-4.81-17.48c-.18-1.81-1.31-3.52-1.66-5.29-1.57-8.06-4.36-15.94-3.95-24.33.11-2.31-.56-2.66-2.88-2.5a33.13,33.13,0,0,1-23-6.52c-3.25-2.45-6.29-5-8.08-8.77a30,30,0,0,1-2.88-12.87,53.72,53.72,0,0,1,2.75-16,32,32,0,0,1,2.38-5.52c.92-1.75,2.93-2,4.5-2s2.29,1.8,2.78,3.23c.82,2.4.55,5,1,7.45,1,5.2,3,9.84,7.59,12.94,2,1.36,4.35,1.33,6.62,1.52,1.39.11,1.48-.78,1.26-1.84A50.93,50.93,0,0,1,45.71,160c.13-2.8.27-5.59.52-8.38a3.43,3.43,0,0,1,4.17-3.23c1.52.38,1.71-.22,1.77-1.46a134.25,134.25,0,0,1,1.79-17.74c1.3-7.19,1.87-14.57,4.36-21.48,1.53-4.25,2.77-8.57,4.13-12.86.26-.82.48-1.57-.34-2.12-4-2.69-5.93-6.62-6.79-11.23-.89-4.81-2.14-9.57-1.76-14.55a26.63,26.63,0,0,1,7.58-16.62A48.25,48.25,0,0,1,77.65,38.92c7.8-3.32,16-5.7,24.48-6.08a96.41,96.41,0,0,1,17.37.86A117.28,117.28,0,0,1,134.3,37a115,115,0,0,1,17,5.78,87.67,87.67,0,0,1,19,11.44,48.19,48.19,0,0,0,8.46,5.4,67.82,67.82,0,0,0,10.78,4.27c4.24,1.28,8.61,1.41,12.95,1.76a69.23,69.23,0,0,1,7.14,1.44c6,1.11,11.85,2.78,17.69,4.4a68.77,68.77,0,0,1,13.37,5.28c5.15,2.68,10.07,5.73,15.07,8.65,5.16,3,9.48,7.11,14,11,3.15,2.71,5.3,6.32,8.29,9.21,1.66,1.6,2.61,3.91,4,5.83A60.13,60.13,0,0,1,288.68,124a112.33,112.33,0,0,1,3.68,12.51,93.33,93.33,0,0,1,3,22.73c.17,8.05,1.08,16.12.39,24.16-.63,7.35-1.25,14.7-1.93,22-.22,2.42-1.56,4.8-.4,7.54.95,2.24-.64,4.69-.9,7.07-.91,8.18-2.42,16.28-3.06,24.49-.2,2.61-.25,5.3-1.24,7.83a5.92,5.92,0,0,0-.29,2.33c.11,2.63-.86,4-3.4,4.63a65.1,65.1,0,0,1-28,.2,19.27,19.27,0,0,0-7.29-.15,36,36,0,0,1-9.83-.1c-2.63-.27-5.28.07-7.9-.66-3-.85-4.31-2.68-3.11-5.55.92-2.18,0-4.26-.06-6.35-.13-4.42-.82-8.82-1.22-13.23-.08-.92-.19-1.31-1.26-1a11.61,11.61,0,0,1-9.3-1.13,4.15,4.15,0,0,0-3.09-.15c-2.29.51-4.7.84-6.92-.18-1.39-.64-2-.24-2.38,1.05-.77,2.89-1.66,5.75-2.19,8.68-1.22,6.82-2.69,13.59-3.26,20.53-.32,4-3,6.06-7,6.5a50.48,50.48,0,0,1-8.36-.14c-3.14-.18-6.3.41-9.44-.13-1.06-.18-2.15-.26-3.18-.54a4.2,4.2,0,0,1-3.52-4.38c-.32-6.37-1.18-12.71-1.61-19.08a70.94,70.94,0,0,1-.38-10.31c.09-1.1-.26-1.63-1.55-1.74a11,11,0,0,1-6.54-2.48c-1.09-1-2-.24-3,.17s-1.19,1.29-1.23,2.3c-.35,8-.4,16-1.55,23.95a13.86,13.86,0,0,1-1.28,4.32c-1.31,2.56-3.22,4.35-6.38,4.33C141.54,264.05,139.42,264.7,137.24,264.63Zm-85.87-105a2.84,2.84,0,0,0-1.27,3.08c.81,6,1.86,11.9,4.92,17.34,3.33,5.93,8.12,10,14,13.16a33,33,0,0,0,16,3.65c3.87,0,7.88-.4,11.34-2.08,3.83-1.85,7.85-3.61,10.91-6.75,2.64-2.72,5.29-5.49,7-8.91a82.59,82.59,0,0,0,4-9.72c1.16-3.39,3-6.46,4.06-9.92.77-2.53-.38-3.34-2-4.38-5-3.12-10.5-3-16-2.57a2.21,2.21,0,0,0-1.92,1.5C99.56,160.54,97.44,167.22,93,173c-4.07,5.21-9.29,7-15.37,7.48-3.26.28-5.91-1.46-8.79-2.5-4.51-1.62-7.55-5.05-10.79-8.26C55.13,166.82,53.47,163.12,51.37,159.66Zm-29,13.84c.09,2.31,0,4.6,1,6.77a24.5,24.5,0,0,0,11,12.08,34.75,34.75,0,0,0,17.8,3.87c1,0,1.84-.47,1.69-1.51-.59-4,.54-8.41-2.63-11.86a5.88,5.88,0,0,1-1.43-2.11c-.55-1.88-1.76-2.14-3.47-2a16.55,16.55,0,0,1-10-2c-6.65-3.87-9-10.22-9.77-17.38-.06-.57.09-1.31-.57-1.47s-.84.64-1.07,1.12C22.72,163.65,22.54,168.58,22.35,173.5Z"/><text class="cls-3" transform="translate(310.5 220.88)">トゥート</text></svg>